<svg width="248" height="90" fill="none" xmlns="http://www.w3.org/2000/svg"><path d="M37.292 38.756c-.419.478-1.046 1.106-1.913 1.853-.866.747-2.002 1.464-3.376 2.181-1.404.717-3.048 1.315-4.93 1.823-1.883.508-4.064.747-6.485.747-2.66 0-5.229-.448-7.68-1.375a18.523 18.523 0 01-6.573-4.123c-1.913-1.823-3.437-4.124-4.602-6.903C.598 30.21 0 26.953 0 23.248c0-3.198.568-6.186 1.733-9.025a23.237 23.237 0 014.781-7.41 21.967 21.967 0 017.172-4.99C16.435.598 19.423 0 22.65 0c2.69 0 4.93.329 6.723 1.016 1.763.687 3.198 1.494 4.273 2.45 1.076.956 1.853 1.913 2.331 2.899s.777 1.793.897 2.45c-.27.568-.807 1.106-1.614 1.614-.777.508-1.703.836-2.75.986-.238-1.016-.656-2.002-1.224-3.018s-1.345-1.913-2.331-2.69c-.986-.777-2.211-1.434-3.675-1.912-1.465-.478-3.168-.717-5.14-.717a15.1 15.1 0 00-5.498 1.046c-1.763.717-3.347 1.793-4.751 3.227-1.405 1.464-2.51 3.317-3.317 5.558-.837 2.27-1.255 4.93-1.255 8.038 0 3.705.508 6.902 1.494 9.562.986 2.66 2.3 4.84 3.944 6.574 1.644 1.703 3.496 2.988 5.588 3.795a17.815 17.815 0 006.484 1.195c2.57 0 4.602-.269 6.036-.807 1.465-.538 2.6-1.046 3.437-1.554v-15c-1.943.09-3.945.15-5.977.209a195.1 195.1 0 01-5.617.09c.09-.688.269-1.315.568-1.883.298-.568.627-.956.986-1.135l15 .12v16.643h.03zm23.905 3.108a8.887 8.887 0 005.259-1.674c1.584-1.105 2.75-2.6 3.556-4.512V13.716a7.838 7.838 0 012.27-.777c.838-.15 1.674-.24 2.51-.24v31.077c-.567.329-1.254.568-2.09.687-.837.15-1.644.21-2.451.21v-5.738a12.418 12.418 0 01-1.673 2.152 14.449 14.449 0 01-2.51 2.062c-.957.627-2.062 1.135-3.287 1.553-1.226.389-2.6.598-4.094.598-1.494 0-2.899-.21-4.213-.657-1.315-.449-2.45-1.136-3.407-2.092-.956-.956-1.733-2.151-2.3-3.556-.569-1.434-.837-3.137-.837-5.11v-20.14a7.838 7.838 0 012.27-.776 14.23 14.23 0 012.51-.24v19.364c0 1.822.21 3.346.658 4.601.448 1.255 1.046 2.271 1.823 3.018a7.036 7.036 0 002.689 1.674c1.046.298 2.151.478 3.317.478zM86.955 2.39c1.763-.657 3.854-1.195 6.275-1.673C95.62.24 98.07.03 100.52.03c2.749 0 5.08.299 6.992.926 1.912.628 3.466 1.464 4.691 2.54 1.226 1.076 2.092 2.301 2.63 3.735.538 1.405.807 2.899.807 4.482 0 1.943-.359 3.646-1.076 5.11a13.328 13.328 0 01-2.809 3.825c-1.135 1.076-2.48 1.942-3.974 2.66a22.474 22.474 0 01-4.482 1.613 9.195 9.195 0 011.942 1.673 36.143 36.143 0 011.942 2.331l5.977 7.74c1.255 1.613 2.39 3.017 3.436 4.183 1.046 1.165 1.942 2.062 2.659 2.66v.358c-.567.269-1.404.508-2.48.627-1.075.15-2.121.21-3.078.21-.418-.15-.926-.598-1.613-1.315-.658-.718-1.584-1.913-2.749-3.586l-7.142-10.1c-.538-.717-1.016-1.345-1.494-1.883a6.98 6.98 0 00-1.524-1.314 5.258 5.258 0 00-1.882-.717c-.718-.15-1.554-.21-2.57-.21h-2.839v18.168a6.56 6.56 0 01-2.27.747c-.867.15-1.764.21-2.69.21V2.39h.03zm11.385.449c-.957 0-2.032.06-3.138.179a27.52 27.52 0 00-3.257.538V22.32c.687.21 1.494.359 2.39.478.897.12 1.943.18 3.108.18 3.944 0 7.082-.807 9.383-2.42 2.301-1.614 3.436-4.094 3.436-7.441 0-1.464-.239-2.809-.717-4.094a8.21 8.21 0 00-2.211-3.257c-.986-.896-2.241-1.614-3.735-2.151-1.494-.538-3.228-.777-5.26-.777zm40.847 39.025a8.883 8.883 0 005.259-1.674c1.584-1.105 2.749-2.6 3.556-4.512V13.716a7.843 7.843 0 012.271-.777 14.23 14.23 0 012.51-.24v31.077c-.568.329-1.255.568-2.091.687-.837.15-1.644.21-2.451.21v-5.738a12.405 12.405 0 01-1.673 2.152 14.448 14.448 0 01-2.51 2.062c-.956.627-2.062 1.135-3.287 1.553-1.225.389-2.6.598-4.094.598-1.494 0-2.898-.21-4.213-.657-1.315-.449-2.45-1.136-3.407-2.092-.956-.956-1.733-2.151-2.3-3.556-.568-1.434-.837-3.137-.837-5.11v-20.14a7.833 7.833 0 012.271-.776 14.22 14.22 0 012.51-.24v19.364c0 1.822.209 3.346.657 4.601.449 1.255 1.046 2.271 1.823 3.018a7.035 7.035 0 002.689 1.674c1.046.298 2.152.478 3.317.478zM.867 67.472v-6.783h.657v6.185h2.69V60.69h.657v6.185H7.56V60.69h.657v6.783H.867zm10.01 0v-6.783h.657v3.018h1.016l2.33-3.018h.778l-2.54 3.287 2.72 3.496h-.808l-2.42-3.137h-1.046v3.137h-.687zm9.353.06c-.479 0-.897-.09-1.285-.3-.389-.178-.717-.447-1.016-.776-.27-.329-.508-.687-.658-1.106a3.734 3.734 0 01-.239-1.255c0-.448.09-.896.24-1.285.149-.418.388-.776.687-1.105a3.678 3.678 0 011.016-.777c.388-.18.806-.269 1.255-.269.478 0 .896.09 1.285.299.388.209.717.448.986.777.269.328.478.687.657 1.105.15.419.24.837.24 1.255 0 .449-.09.897-.24 1.285a4.16 4.16 0 01-.657 1.106 3.087 3.087 0 01-1.016.747c-.389.21-.807.299-1.255.299zm-2.51-3.437c0 .359.06.718.179 1.076.12.329.299.657.508.897.21.269.478.478.807.627a2.344 2.344 0 002.062 0c.298-.15.567-.388.776-.657.21-.27.389-.568.508-.897a3.036 3.036 0 000-2.062 3.313 3.313 0 00-.508-.896c-.239-.269-.478-.478-.806-.627a2.216 2.216 0 00-1.016-.24c-.389 0-.718.09-1.046.24a2.04 2.04 0 00-.777.657c-.21.269-.389.568-.508.896-.12.3-.18.628-.18.986zm12.49 3.377v-6.185h-2.779l-.03 1.434c-.03.926-.09 1.703-.209 2.33-.09.628-.239 1.106-.418 1.465-.18.358-.419.597-.688.747-.268.15-.597.209-.956.209v-.598c.24 0 .478-.06.658-.179.179-.12.358-.358.478-.657.12-.329.239-.747.328-1.315.09-.568.12-1.285.15-2.151l.06-1.883h4.034v6.783h-.628zm5.408-6.753h.568l2.81 6.783h-.718l-.837-2.122h-3.107l-.837 2.122h-.717l2.838-6.783zm1.614 4.123l-1.345-3.346-1.344 3.346h2.69zm6.275 3.945v-1.883h.299c.18 0 .329-.06.478-.209.15-.15.269-.388.359-.717.09-.329.179-.777.239-1.315.06-.568.09-1.225.12-2.062l.059-1.882h4.064v6.185h.807v1.883h-.598v-1.285h-5.2v1.285h-.627zm1.255-1.883h3.676v-5.588h-2.78l-.03 1.345c-.03.867-.059 1.584-.119 2.151-.06.568-.15 1.017-.269 1.375-.15.329-.299.568-.478.717zm11.923.568v-6.185h-2.779l-.03 1.434c-.03.926-.09 1.703-.21 2.33-.089.628-.238 1.106-.417 1.465-.18.358-.419.597-.688.747-.269.15-.597.209-.956.209v-.598c.24 0 .478-.06.658-.179.179-.12.358-.358.478-.657.12-.329.239-.747.328-1.315.09-.568.12-1.285.15-2.151l.06-1.883h4.033v6.783h-.627zm3.078 0l1.823-2.869c-.479-.12-.867-.358-1.136-.687-.269-.358-.389-.777-.389-1.255 0-.358.09-.687.27-.986a2 2 0 01.776-.717c.329-.18.718-.269 1.196-.269h2.091v6.783h-.657v-2.779h-1.465l-1.732 2.779h-.777zm2.54-3.347h1.404v-2.809h-1.374c-.3 0-.598.06-.837.18-.24.12-.448.269-.568.478-.12.209-.21.448-.21.717 0 .269.06.538.18.747.12.21.299.389.538.508.24.12.508.18.867.18zM5.946 77.154c0 .328-.09.627-.269.896a1.733 1.733 0 01-.687.627c-.299.15-.597.21-.956.21H.867v-6.783h3.257c.328 0 .597.09.836.239.24.179.419.388.538.657a2 2 0 01.18.837c0 .328-.09.657-.27.926a1.456 1.456 0 01-.717.628c.389.12.688.328.927.627.239.359.328.747.328 1.136zM1.524 72.73v2.51h2.33c.21 0 .419-.06.598-.18a1.5 1.5 0 00.419-.447c.09-.18.15-.389.15-.598 0-.239-.06-.448-.15-.628a1.406 1.406 0 00-.389-.448.984.984 0 00-.568-.179h-2.39v-.03zm3.765 4.333c0-.24-.06-.448-.15-.628a1.279 1.279 0 00-.418-.478 1.071 1.071 0 00-.597-.179h-2.6v2.57h2.54a1.1 1.1 0 00.627-.18c.18-.119.33-.268.449-.478.09-.209.149-.418.149-.627zm7.441 1.256v.597H8.186v-6.782h4.453v.597H8.845v2.45h3.317v.568H8.845v2.57h3.884zm4.302-6.186h.568l2.809 6.784h-.717l-.837-2.122h-3.108l-.836 2.121h-.717l2.838-6.782zm1.614 4.124L17.3 72.91l-1.344 3.347h2.689zm6.156 2.689c-.538 0-.987-.09-1.345-.298a2.18 2.18 0 01-.867-.777 3.353 3.353 0 01-.478-1.106 5.994 5.994 0 01-.15-1.255v-3.406h.658v3.406c0 .359.03.687.12 1.016.06.329.179.628.358.897.18.268.389.478.658.627.269.15.627.239 1.046.239.418 0 .776-.09 1.075-.239.27-.15.508-.388.658-.657.149-.27.268-.568.358-.897.06-.328.12-.687.12-1.016v-3.406h.657v3.406c0 .448-.06.897-.15 1.285a2.95 2.95 0 01-.477 1.076c-.24.299-.508.568-.897.747-.388.269-.837.358-1.345.358zm10.218-6.215H32.6v6.186h-.657V72.73h-2.42v-.597h5.498v.597zm2.003-.598l2.211 3.646 2.241-3.645h.717l-2.63 4.243v2.51h-.656v-2.54l-2.6-4.243h.717v.03zm6.185 4.483v-.598h2.78v.598h-2.78zm11.206 2.3v-5.498l-2.45 4.273h-.419l-2.45-4.273v5.498h-.657v-6.782h.687l2.63 4.631 2.659-4.632h.687v6.784h-.687zm5.438-6.783h.568l2.809 6.784h-.717l-.837-2.122h-3.108l-.836 2.121h-.718l2.84-6.782zm1.614 4.124L60.12 72.91l-1.344 3.347h2.689zm2.988-.777c0-.418.06-.807.21-1.225a3.9 3.9 0 01.627-1.076 2.642 2.642 0 011.016-.777 3.32 3.32 0 011.374-.298c.598 0 1.136.149 1.554.418.418.269.747.627.956 1.076l-.538.328c-.15-.298-.328-.538-.567-.717a2.086 2.086 0 00-.718-.388 2.17 2.17 0 00-.747-.12c-.418 0-.776.09-1.075.24-.3.149-.568.388-.777.657-.21.269-.389.567-.478.896-.12.329-.15.687-.15 1.016 0 .388.06.747.18 1.076.12.329.298.657.537.896.24.27.508.478.807.628.299.15.658.239 1.016.239.27 0 .508-.03.777-.12s.508-.239.747-.418c.24-.18.418-.418.568-.717l.568.299a2.31 2.31 0 01-.658.866 3.343 3.343 0 01-2.032.717c-.478 0-.896-.09-1.285-.299a3.784 3.784 0 01-1.016-.806 3.897 3.897 0 01-.657-1.136 3.12 3.12 0 01-.239-1.255zm12.729-2.749h-2.42v6.186h-.657V72.73h-2.42v-.597h5.497v.597zm6.515 5.588v.597h-4.542v-6.782h4.452v.597h-3.795v2.45h3.317v.568h-3.317v2.57h3.885zm2.211.597v-6.782h2.809c.298 0 .567.06.806.179.24.12.449.299.628.478a2.246 2.246 0 01.568 1.464c0 .359-.09.717-.24 1.046a1.992 1.992 0 01-.687.807c-.298.209-.627.298-1.016.298h-2.18v2.51h-.688zm.657-3.107h2.152c.269 0 .508-.06.687-.21.21-.149.358-.328.448-.567.12-.24.15-.478.15-.777 0-.269-.06-.538-.18-.777a1.553 1.553 0 00-.508-.568 1.164 1.164 0 00-.687-.209h-2.122v3.108h.06zm8.964 3.137c-.478 0-.896-.09-1.284-.298-.389-.18-.718-.449-1.016-.777-.27-.329-.508-.688-.658-1.106a3.734 3.734 0 01-.239-1.255c0-.448.09-.896.24-1.285a3.26 3.26 0 01.687-1.105 3.677 3.677 0 011.015-.777c.389-.18.807-.27 1.256-.27.478 0 .896.09 1.284.3.389.209.718.448.987.776.268.33.478.688.657 1.106.15.418.239.837.239 1.255 0 .448-.09.896-.24 1.285-.148.418-.388.777-.656 1.106a3.088 3.088 0 01-1.016.747 2.597 2.597 0 01-1.255.298zm-2.51-3.406c0 .358.06.717.18 1.076.12.328.299.657.508.896a2.1 2.1 0 00.807.628 2.344 2.344 0 002.062 0c.298-.15.567-.389.776-.658.21-.269.389-.567.508-.896a3.036 3.036 0 000-2.062 3.311 3.311 0 00-.508-.896c-.239-.27-.478-.478-.806-.628a2.216 2.216 0 00-1.016-.239c-.389 0-.718.09-1.046.239a2.04 2.04 0 00-.777.657c-.21.27-.389.568-.508.897-.12.269-.18.627-.18.986zm12.969 1.614c0 .328-.09.627-.269.896a1.738 1.738 0 01-.687.627c-.299.15-.598.21-.956.21h-3.198v-6.783h3.257c.329 0 .598.09.837.239.239.179.418.388.538.657.12.269.179.538.179.837 0 .328-.089.657-.269.926a1.454 1.454 0 01-.717.628c.389.12.687.328.927.627.268.359.358.747.358 1.136zm-4.422-4.423v2.51h2.33c.21 0 .419-.06.598-.18.179-.119.299-.268.418-.447.09-.18.15-.389.15-.598 0-.239-.06-.448-.15-.628a1.402 1.402 0 00-.388-.448.985.985 0 00-.568-.179h-2.39v-.03zm3.765 4.333c0-.24-.06-.448-.15-.628a1.275 1.275 0 00-.418-.478 1.076 1.076 0 00-.598-.179h-2.599v2.57h2.54a1.1 1.1 0 00.627-.18 1.38 1.38 0 00.448-.478 1.6 1.6 0 00.15-.627z" fill="#846666"/><path d="M150.751 73.986c-5.139-.388-10.369.24-15.299 1.763-4.96 1.524-9.622 3.974-13.716 7.142a36.926 36.926 0 00-3.944 3.526 317.764 317.764 0 003.347-8.845c1.434-4.004 2.779-8.038 4.123-12.072 1.345-4.034 2.66-8.068 4.064-12.072 1.405-4.034 2.869-8.008 4.482-11.953 1.584-3.914 3.317-7.799 5.26-11.564.239-.448.478-.926.717-1.374.358-.688-.658-1.285-1.016-.598-2.002 3.765-3.765 7.65-5.409 11.594-1.643 3.944-3.137 7.948-4.572 11.982-1.434 4.034-2.779 8.068-4.123 12.132a834.79 834.79 0 01-4.094 12.132 239.57 239.57 0 01-4.512 11.982c-.209.508-.418.987-.628 1.495-.239.537.628 1.016.987.567 3.227-3.914 7.201-7.141 11.653-9.592a41.55 41.55 0 0114.254-4.72 38.365 38.365 0 018.486-.24c.329.03.598-.299.598-.598-.06-.448-.329-.687-.658-.687z" fill="#846666"/><path d="M247.417 58.418c-8.127.508-15.508 4.154-22.739 7.56-7.321 3.406-15.27 6.813-23.517 6.036-4.183-.388-7.948-2.33-12.072-2.928.06-.12.12-.27.179-.389.538-1.255.867-2.809.269-4.094-.717-1.523-2.599-1.912-4.064-1.314-1.673.657-3.257 1.793-4.691 2.868a30.147 30.147 0 00-3.436 3.048 103.034 103.034 0 011.793-4.213 56.178 56.178 0 011.523-1.225 87.159 87.159 0 0010.578-10.429 108.078 108.078 0 004.572-5.797 71.798 71.798 0 002.152-3.107c.687-1.016 1.344-2.092 1.643-3.287.568-2.152-.299-4.901-2.838-5.17-2.301-.239-3.975 1.972-5.11 3.676-5.2 7.799-9.682 16.046-13.477 24.622a91.54 91.54 0 01-5.468 4.004c-1.853 1.255-3.765 2.54-5.797 3.496-1.882.896-4.303 1.584-6.215.299-1.584-1.076-2.421-3.018-4.303-3.706-2.271-.836-4.512.688-6.425 1.764-1.225.687-3.137 1.374-4.482.567-.777-.448-.986-1.374-.836-2.211.179-.986.776-1.823 1.404-2.6 2.032-2.63 6.634-6.364 9.771-3.107.538.567.867 1.314.717 2.091-.149.747 1.016 1.076 1.136.329.358-2.032-1.046-3.735-2.869-4.452-2.032-.807-4.213-.15-6.006.956-1.853 1.165-3.347 2.839-4.542 4.632-1.106 1.673-1.315 4.273.598 5.408 1.583.956 3.705.418 5.259-.359 2.002-.986 4.422-3.077 6.633-1.464.807.598 1.405 1.435 2.092 2.152.777.806 1.703 1.464 2.779 1.733 2.331.568 4.781-.419 6.813-1.524 3.018-1.644 5.917-3.616 8.695-5.707-.268.657-.537 1.314-.806 1.942a135.93 135.93 0 00-1.464 3.705c-.269.687.717.956 1.075.448a28.026 28.026 0 017.5-6.902c.718-.448 1.465-.897 2.212-1.255.717-.329 1.613-.419 2.301.06.986.717.687 2.24.358 3.227-.149.388-.329.806-.508 1.195-3.317-.24-6.723.508-8.755 3.347-.837 1.135-1.793 3.078-.657 4.332a2.153 2.153 0 001.942.688c.777-.12 1.524-.658 2.181-1.046 2.421-1.494 4.542-3.616 5.976-6.096.986.12 1.943.359 2.869.598 1.853.508 3.675 1.165 5.558 1.643a26.94 26.94 0 005.558.867c7.56.299 14.821-2.6 21.544-5.708 6.664-3.077 13.327-6.544 20.648-7.68a29.946 29.946 0 012.749-.298c.777-.09.777-1.285 0-1.225zM189.358 45.45c1.285-2.092 2.54-4.274 4.004-6.216.598-.807 1.375-1.643 2.331-2.002a2.112 2.112 0 012.45.747c1.345 1.972-.269 4.423-1.374 6.066a95.158 95.158 0 01-4.034 5.588c-3.706 4.691-7.859 9.024-12.431 12.879a155.164 155.164 0 019.054-17.063zm-3.287 26.146a17.22 17.22 0 01-3.526 3.227c-.687.478-2.928 2.211-3.406.657-.18-.627.298-1.524.597-2.032.389-.687.926-1.285 1.524-1.793 1.673-1.374 3.795-1.733 5.947-1.613a16.181 16.181 0 01-1.136 1.554z" fill="#846666"/></svg>