<svg width="35" height="35" fill="none" xmlns="http://www.w3.org/2000/svg"><path d="M22.969 17.5a5.469 5.469 0 01-10.938 0c0-.312.033-.616.09-.912h-1.913v7.287c0 .506.41.917.917.917h12.752a.917.917 0 00.915-.917v-7.287h-1.913c.057.296.09.6.09.912zM17.5 21.146a3.646 3.646 0 10-.001-7.292 3.646 3.646 0 00.001 7.292zm4.375-7.474h2.186a.549.549 0 00.548-.547v-2.186a.549.549 0 00-.548-.548h-2.186a.549.549 0 00-.549.548v2.186c.002.3.248.547.549.547zM17.5 0a17.5 17.5 0 100 35 17.5 17.5 0 000-35zm9.115 24.59a2.031 2.031 0 01-2.026 2.025H10.411a2.031 2.031 0 01-2.026-2.026V10.411c0-1.114.912-2.026 2.026-2.026h14.178c1.114 0 2.026.912 2.026 2.026v14.178z" fill="#846666"/></svg>